<?xml version="1.0" encoding="UTF-8" standalone="no"?>
<!-- Created with Inkscape (http://www.inkscape.org/) -->

<svg
   xmlns:osb="http://www.openswatchbook.org/uri/2009/osb"
   xmlns:dc="http://purl.org/dc/elements/1.1/"
   xmlns:cc="http://creativecommons.org/ns#"
   xmlns:rdf="http://www.w3.org/1999/02/22-rdf-syntax-ns#"
   xmlns:svg="http://www.w3.org/2000/svg"
   xmlns="http://www.w3.org/2000/svg"
   xmlns:sodipodi="http://sodipodi.sourceforge.net/DTD/sodipodi-0.dtd"
   xmlns:inkscape="http://www.inkscape.org/namespaces/inkscape"
   width="160mm"
   height="160mm"
   viewBox="0 0 160 160"
   version="1.1"
   id="svg8"
   sodipodi:docname="my_logo.svg"
   inkscape:version="0.92.2 (5c3e80d, 2017-08-06)">
  <defs
     id="defs2">
    <marker
       inkscape:isstock="true"
       style="overflow:visible"
       id="marker11422"
       refX="0"
       refY="0"
       orient="auto"
       inkscape:stockid="Tail">
      <g
         style="fill:#ffffff;fill-opacity:1;stroke:#000000;stroke-opacity:1"
         transform="scale(-1.2)"
         id="g11420">
        <path
           style="fill:#ffffff;fill-opacity:1;fill-rule:evenodd;stroke:#000000;stroke-width:0.80000001;stroke-linecap:round;stroke-opacity:1"
           d="M -3.8048674,-3.9585227 0.54352094,0"
           id="path11408"
           inkscape:connector-curvature="0" />
        <path
           style="fill:#ffffff;fill-opacity:1;fill-rule:evenodd;stroke:#000000;stroke-width:0.80000001;stroke-linecap:round;stroke-opacity:1"
           d="M -1.2866832,-3.9585227 3.0617053,0"
           id="path11410"
           inkscape:connector-curvature="0" />
        <path
           style="fill:#ffffff;fill-opacity:1;fill-rule:evenodd;stroke:#000000;stroke-width:0.80000001;stroke-linecap:round;stroke-opacity:1"
           d="M 1.3053582,-3.9585227 5.6537466,0"
           id="path11412"
           inkscape:connector-curvature="0" />
        <path
           style="fill:#ffffff;fill-opacity:1;fill-rule:evenodd;stroke:#000000;stroke-width:0.80000001;stroke-linecap:round;stroke-opacity:1"
           d="M -3.8048674,4.1775838 0.54352094,0.21974226"
           id="path11414"
           inkscape:connector-curvature="0" />
        <path
           style="fill:#ffffff;fill-opacity:1;fill-rule:evenodd;stroke:#000000;stroke-width:0.80000001;stroke-linecap:round;stroke-opacity:1"
           d="M -1.2866832,4.1775838 3.0617053,0.21974226"
           id="path11416"
           inkscape:connector-curvature="0" />
        <path
           style="fill:#ffffff;fill-opacity:1;fill-rule:evenodd;stroke:#000000;stroke-width:0.80000001;stroke-linecap:round;stroke-opacity:1"
           d="M 1.3053582,4.1775838 5.6537466,0.21974226"
           id="path11418"
           inkscape:connector-curvature="0" />
      </g>
    </marker>
    <marker
       inkscape:isstock="true"
       style="overflow:visible"
       id="marker11082"
       refX="0"
       refY="0"
       orient="auto"
       inkscape:stockid="Tail">
      <g
         style="fill:#ffffff;fill-opacity:1;stroke:#000000;stroke-opacity:1"
         transform="scale(-1.2)"
         id="g11080">
        <path
           style="fill:#ffffff;fill-opacity:1;fill-rule:evenodd;stroke:#000000;stroke-width:0.80000001;stroke-linecap:round;stroke-opacity:1"
           d="M -3.8048674,-3.9585227 0.54352094,0"
           id="path11068"
           inkscape:connector-curvature="0" />
        <path
           style="fill:#ffffff;fill-opacity:1;fill-rule:evenodd;stroke:#000000;stroke-width:0.80000001;stroke-linecap:round;stroke-opacity:1"
           d="M -1.2866832,-3.9585227 3.0617053,0"
           id="path11070"
           inkscape:connector-curvature="0" />
        <path
           style="fill:#ffffff;fill-opacity:1;fill-rule:evenodd;stroke:#000000;stroke-width:0.80000001;stroke-linecap:round;stroke-opacity:1"
           d="M 1.3053582,-3.9585227 5.6537466,0"
           id="path11072"
           inkscape:connector-curvature="0" />
        <path
           style="fill:#ffffff;fill-opacity:1;fill-rule:evenodd;stroke:#000000;stroke-width:0.80000001;stroke-linecap:round;stroke-opacity:1"
           d="M -3.8048674,4.1775838 0.54352094,0.21974226"
           id="path11074"
           inkscape:connector-curvature="0" />
        <path
           style="fill:#ffffff;fill-opacity:1;fill-rule:evenodd;stroke:#000000;stroke-width:0.80000001;stroke-linecap:round;stroke-opacity:1"
           d="M -1.2866832,4.1775838 3.0617053,0.21974226"
           id="path11076"
           inkscape:connector-curvature="0" />
        <path
           style="fill:#ffffff;fill-opacity:1;fill-rule:evenodd;stroke:#000000;stroke-width:0.80000001;stroke-linecap:round;stroke-opacity:1"
           d="M 1.3053582,4.1775838 5.6537466,0.21974226"
           id="path11078"
           inkscape:connector-curvature="0" />
      </g>
    </marker>
    <marker
       inkscape:isstock="true"
       style="overflow:visible"
       id="marker10766"
       refX="0"
       refY="0"
       orient="auto"
       inkscape:stockid="Tail">
      <g
         style="fill:#ffffff;fill-opacity:1;stroke:#000000;stroke-opacity:1"
         transform="scale(-1.2)"
         id="g10764">
        <path
           style="fill:#ffffff;fill-opacity:1;fill-rule:evenodd;stroke:#000000;stroke-width:0.80000001;stroke-linecap:round;stroke-opacity:1"
           d="M -3.8048674,-3.9585227 0.54352094,0"
           id="path10752"
           inkscape:connector-curvature="0" />
        <path
           style="fill:#ffffff;fill-opacity:1;fill-rule:evenodd;stroke:#000000;stroke-width:0.80000001;stroke-linecap:round;stroke-opacity:1"
           d="M -1.2866832,-3.9585227 3.0617053,0"
           id="path10754"
           inkscape:connector-curvature="0" />
        <path
           style="fill:#ffffff;fill-opacity:1;fill-rule:evenodd;stroke:#000000;stroke-width:0.80000001;stroke-linecap:round;stroke-opacity:1"
           d="M 1.3053582,-3.9585227 5.6537466,0"
           id="path10756"
           inkscape:connector-curvature="0" />
        <path
           style="fill:#ffffff;fill-opacity:1;fill-rule:evenodd;stroke:#000000;stroke-width:0.80000001;stroke-linecap:round;stroke-opacity:1"
           d="M -3.8048674,4.1775838 0.54352094,0.21974226"
           id="path10758"
           inkscape:connector-curvature="0" />
        <path
           style="fill:#ffffff;fill-opacity:1;fill-rule:evenodd;stroke:#000000;stroke-width:0.80000001;stroke-linecap:round;stroke-opacity:1"
           d="M -1.2866832,4.1775838 3.0617053,0.21974226"
           id="path10760"
           inkscape:connector-curvature="0" />
        <path
           style="fill:#ffffff;fill-opacity:1;fill-rule:evenodd;stroke:#000000;stroke-width:0.80000001;stroke-linecap:round;stroke-opacity:1"
           d="M 1.3053582,4.1775838 5.6537466,0.21974226"
           id="path10762"
           inkscape:connector-curvature="0" />
      </g>
    </marker>
    <marker
       inkscape:isstock="true"
       style="overflow:visible"
       id="marker10474"
       refX="0"
       refY="0"
       orient="auto"
       inkscape:stockid="Tail">
      <g
         style="fill:#ffffff;fill-opacity:1;stroke:#000000;stroke-opacity:1"
         transform="scale(-1.2)"
         id="g10472">
        <path
           style="fill:#ffffff;fill-opacity:1;fill-rule:evenodd;stroke:#000000;stroke-width:0.80000001;stroke-linecap:round;stroke-opacity:1"
           d="M -3.8048674,-3.9585227 0.54352094,0"
           id="path10460"
           inkscape:connector-curvature="0" />
        <path
           style="fill:#ffffff;fill-opacity:1;fill-rule:evenodd;stroke:#000000;stroke-width:0.80000001;stroke-linecap:round;stroke-opacity:1"
           d="M -1.2866832,-3.9585227 3.0617053,0"
           id="path10462"
           inkscape:connector-curvature="0" />
        <path
           style="fill:#ffffff;fill-opacity:1;fill-rule:evenodd;stroke:#000000;stroke-width:0.80000001;stroke-linecap:round;stroke-opacity:1"
           d="M 1.3053582,-3.9585227 5.6537466,0"
           id="path10464"
           inkscape:connector-curvature="0" />
        <path
           style="fill:#ffffff;fill-opacity:1;fill-rule:evenodd;stroke:#000000;stroke-width:0.80000001;stroke-linecap:round;stroke-opacity:1"
           d="M -3.8048674,4.1775838 0.54352094,0.21974226"
           id="path10466"
           inkscape:connector-curvature="0" />
        <path
           style="fill:#ffffff;fill-opacity:1;fill-rule:evenodd;stroke:#000000;stroke-width:0.80000001;stroke-linecap:round;stroke-opacity:1"
           d="M -1.2866832,4.1775838 3.0617053,0.21974226"
           id="path10468"
           inkscape:connector-curvature="0" />
        <path
           style="fill:#ffffff;fill-opacity:1;fill-rule:evenodd;stroke:#000000;stroke-width:0.80000001;stroke-linecap:round;stroke-opacity:1"
           d="M 1.3053582,4.1775838 5.6537466,0.21974226"
           id="path10470"
           inkscape:connector-curvature="0" />
      </g>
    </marker>
    <marker
       inkscape:isstock="true"
       style="overflow:visible"
       id="marker10206"
       refX="0"
       refY="0"
       orient="auto"
       inkscape:stockid="Tail">
      <g
         style="fill:#ffffff;fill-opacity:1;stroke:#000000;stroke-opacity:1"
         transform="scale(-1.2)"
         id="g10204">
        <path
           style="fill:#ffffff;fill-opacity:1;fill-rule:evenodd;stroke:#000000;stroke-width:0.80000001;stroke-linecap:round;stroke-opacity:1"
           d="M -3.8048674,-3.9585227 0.54352094,0"
           id="path10192"
           inkscape:connector-curvature="0" />
        <path
           style="fill:#ffffff;fill-opacity:1;fill-rule:evenodd;stroke:#000000;stroke-width:0.80000001;stroke-linecap:round;stroke-opacity:1"
           d="M -1.2866832,-3.9585227 3.0617053,0"
           id="path10194"
           inkscape:connector-curvature="0" />
        <path
           style="fill:#ffffff;fill-opacity:1;fill-rule:evenodd;stroke:#000000;stroke-width:0.80000001;stroke-linecap:round;stroke-opacity:1"
           d="M 1.3053582,-3.9585227 5.6537466,0"
           id="path10196"
           inkscape:connector-curvature="0" />
        <path
           style="fill:#ffffff;fill-opacity:1;fill-rule:evenodd;stroke:#000000;stroke-width:0.80000001;stroke-linecap:round;stroke-opacity:1"
           d="M -3.8048674,4.1775838 0.54352094,0.21974226"
           id="path10198"
           inkscape:connector-curvature="0" />
        <path
           style="fill:#ffffff;fill-opacity:1;fill-rule:evenodd;stroke:#000000;stroke-width:0.80000001;stroke-linecap:round;stroke-opacity:1"
           d="M -1.2866832,4.1775838 3.0617053,0.21974226"
           id="path10200"
           inkscape:connector-curvature="0" />
        <path
           style="fill:#ffffff;fill-opacity:1;fill-rule:evenodd;stroke:#000000;stroke-width:0.80000001;stroke-linecap:round;stroke-opacity:1"
           d="M 1.3053582,4.1775838 5.6537466,0.21974226"
           id="path10202"
           inkscape:connector-curvature="0" />
      </g>
    </marker>
    <marker
       inkscape:isstock="true"
       style="overflow:visible"
       id="marker9962"
       refX="0"
       refY="0"
       orient="auto"
       inkscape:stockid="Tail">
      <g
         style="fill:#ffffff;fill-opacity:1;stroke:#000000;stroke-opacity:1"
         transform="scale(-1.2)"
         id="g9960">
        <path
           style="fill:#ffffff;fill-opacity:1;fill-rule:evenodd;stroke:#000000;stroke-width:0.80000001;stroke-linecap:round;stroke-opacity:1"
           d="M -3.8048674,-3.9585227 0.54352094,0"
           id="path9948"
           inkscape:connector-curvature="0" />
        <path
           style="fill:#ffffff;fill-opacity:1;fill-rule:evenodd;stroke:#000000;stroke-width:0.80000001;stroke-linecap:round;stroke-opacity:1"
           d="M -1.2866832,-3.9585227 3.0617053,0"
           id="path9950"
           inkscape:connector-curvature="0" />
        <path
           style="fill:#ffffff;fill-opacity:1;fill-rule:evenodd;stroke:#000000;stroke-width:0.80000001;stroke-linecap:round;stroke-opacity:1"
           d="M 1.3053582,-3.9585227 5.6537466,0"
           id="path9952"
           inkscape:connector-curvature="0" />
        <path
           style="fill:#ffffff;fill-opacity:1;fill-rule:evenodd;stroke:#000000;stroke-width:0.80000001;stroke-linecap:round;stroke-opacity:1"
           d="M -3.8048674,4.1775838 0.54352094,0.21974226"
           id="path9954"
           inkscape:connector-curvature="0" />
        <path
           style="fill:#ffffff;fill-opacity:1;fill-rule:evenodd;stroke:#000000;stroke-width:0.80000001;stroke-linecap:round;stroke-opacity:1"
           d="M -1.2866832,4.1775838 3.0617053,0.21974226"
           id="path9956"
           inkscape:connector-curvature="0" />
        <path
           style="fill:#ffffff;fill-opacity:1;fill-rule:evenodd;stroke:#000000;stroke-width:0.80000001;stroke-linecap:round;stroke-opacity:1"
           d="M 1.3053582,4.1775838 5.6537466,0.21974226"
           id="path9958"
           inkscape:connector-curvature="0" />
      </g>
    </marker>
    <marker
       inkscape:isstock="true"
       style="overflow:visible"
       id="marker9742"
       refX="0"
       refY="0"
       orient="auto"
       inkscape:stockid="Tail">
      <g
         style="fill:#ffffff;fill-opacity:1;stroke:#000000;stroke-opacity:1"
         transform="scale(-1.2)"
         id="g9740">
        <path
           style="fill:#ffffff;fill-opacity:1;fill-rule:evenodd;stroke:#000000;stroke-width:0.80000001;stroke-linecap:round;stroke-opacity:1"
           d="M -3.8048674,-3.9585227 0.54352094,0"
           id="path9728"
           inkscape:connector-curvature="0" />
        <path
           style="fill:#ffffff;fill-opacity:1;fill-rule:evenodd;stroke:#000000;stroke-width:0.80000001;stroke-linecap:round;stroke-opacity:1"
           d="M -1.2866832,-3.9585227 3.0617053,0"
           id="path9730"
           inkscape:connector-curvature="0" />
        <path
           style="fill:#ffffff;fill-opacity:1;fill-rule:evenodd;stroke:#000000;stroke-width:0.80000001;stroke-linecap:round;stroke-opacity:1"
           d="M 1.3053582,-3.9585227 5.6537466,0"
           id="path9732"
           inkscape:connector-curvature="0" />
        <path
           style="fill:#ffffff;fill-opacity:1;fill-rule:evenodd;stroke:#000000;stroke-width:0.80000001;stroke-linecap:round;stroke-opacity:1"
           d="M -3.8048674,4.1775838 0.54352094,0.21974226"
           id="path9734"
           inkscape:connector-curvature="0" />
        <path
           style="fill:#ffffff;fill-opacity:1;fill-rule:evenodd;stroke:#000000;stroke-width:0.80000001;stroke-linecap:round;stroke-opacity:1"
           d="M -1.2866832,4.1775838 3.0617053,0.21974226"
           id="path9736"
           inkscape:connector-curvature="0" />
        <path
           style="fill:#ffffff;fill-opacity:1;fill-rule:evenodd;stroke:#000000;stroke-width:0.80000001;stroke-linecap:round;stroke-opacity:1"
           d="M 1.3053582,4.1775838 5.6537466,0.21974226"
           id="path9738"
           inkscape:connector-curvature="0" />
      </g>
    </marker>
    <marker
       inkscape:isstock="true"
       style="overflow:visible"
       id="marker9546"
       refX="0"
       refY="0"
       orient="auto"
       inkscape:stockid="Tail">
      <g
         style="fill:#ffffff;fill-opacity:1;stroke:#000000;stroke-opacity:1"
         transform="scale(-1.2)"
         id="g9544">
        <path
           style="fill:#ffffff;fill-opacity:1;fill-rule:evenodd;stroke:#000000;stroke-width:0.80000001;stroke-linecap:round;stroke-opacity:1"
           d="M -3.8048674,-3.9585227 0.54352094,0"
           id="path9532"
           inkscape:connector-curvature="0" />
        <path
           style="fill:#ffffff;fill-opacity:1;fill-rule:evenodd;stroke:#000000;stroke-width:0.80000001;stroke-linecap:round;stroke-opacity:1"
           d="M -1.2866832,-3.9585227 3.0617053,0"
           id="path9534"
           inkscape:connector-curvature="0" />
        <path
           style="fill:#ffffff;fill-opacity:1;fill-rule:evenodd;stroke:#000000;stroke-width:0.80000001;stroke-linecap:round;stroke-opacity:1"
           d="M 1.3053582,-3.9585227 5.6537466,0"
           id="path9536"
           inkscape:connector-curvature="0" />
        <path
           style="fill:#ffffff;fill-opacity:1;fill-rule:evenodd;stroke:#000000;stroke-width:0.80000001;stroke-linecap:round;stroke-opacity:1"
           d="M -3.8048674,4.1775838 0.54352094,0.21974226"
           id="path9538"
           inkscape:connector-curvature="0" />
        <path
           style="fill:#ffffff;fill-opacity:1;fill-rule:evenodd;stroke:#000000;stroke-width:0.80000001;stroke-linecap:round;stroke-opacity:1"
           d="M -1.2866832,4.1775838 3.0617053,0.21974226"
           id="path9540"
           inkscape:connector-curvature="0" />
        <path
           style="fill:#ffffff;fill-opacity:1;fill-rule:evenodd;stroke:#000000;stroke-width:0.80000001;stroke-linecap:round;stroke-opacity:1"
           d="M 1.3053582,4.1775838 5.6537466,0.21974226"
           id="path9542"
           inkscape:connector-curvature="0" />
      </g>
    </marker>
    <marker
       inkscape:isstock="true"
       style="overflow:visible"
       id="marker9374"
       refX="0"
       refY="0"
       orient="auto"
       inkscape:stockid="Tail">
      <g
         style="fill:#ffffff;fill-opacity:1;stroke:#000000;stroke-opacity:1"
         transform="scale(-1.2)"
         id="g9372">
        <path
           style="fill:#ffffff;fill-opacity:1;fill-rule:evenodd;stroke:#000000;stroke-width:0.80000001;stroke-linecap:round;stroke-opacity:1"
           d="M -3.8048674,-3.9585227 0.54352094,0"
           id="path9360"
           inkscape:connector-curvature="0" />
        <path
           style="fill:#ffffff;fill-opacity:1;fill-rule:evenodd;stroke:#000000;stroke-width:0.80000001;stroke-linecap:round;stroke-opacity:1"
           d="M -1.2866832,-3.9585227 3.0617053,0"
           id="path9362"
           inkscape:connector-curvature="0" />
        <path
           style="fill:#ffffff;fill-opacity:1;fill-rule:evenodd;stroke:#000000;stroke-width:0.80000001;stroke-linecap:round;stroke-opacity:1"
           d="M 1.3053582,-3.9585227 5.6537466,0"
           id="path9364"
           inkscape:connector-curvature="0" />
        <path
           style="fill:#ffffff;fill-opacity:1;fill-rule:evenodd;stroke:#000000;stroke-width:0.80000001;stroke-linecap:round;stroke-opacity:1"
           d="M -3.8048674,4.1775838 0.54352094,0.21974226"
           id="path9366"
           inkscape:connector-curvature="0" />
        <path
           style="fill:#ffffff;fill-opacity:1;fill-rule:evenodd;stroke:#000000;stroke-width:0.80000001;stroke-linecap:round;stroke-opacity:1"
           d="M -1.2866832,4.1775838 3.0617053,0.21974226"
           id="path9368"
           inkscape:connector-curvature="0" />
        <path
           style="fill:#ffffff;fill-opacity:1;fill-rule:evenodd;stroke:#000000;stroke-width:0.80000001;stroke-linecap:round;stroke-opacity:1"
           d="M 1.3053582,4.1775838 5.6537466,0.21974226"
           id="path9370"
           inkscape:connector-curvature="0" />
      </g>
    </marker>
    <marker
       inkscape:isstock="true"
       style="overflow:visible"
       id="marker9334"
       refX="0"
       refY="0"
       orient="auto"
       inkscape:stockid="Tail">
      <g
         style="fill:#ffffff;fill-opacity:1;stroke:#000000;stroke-opacity:1"
         transform="scale(-1.2)"
         id="g9332">
        <path
           style="fill:#ffffff;fill-opacity:1;fill-rule:evenodd;stroke:#000000;stroke-width:0.80000001;stroke-linecap:round;stroke-opacity:1"
           d="M -3.8048674,-3.9585227 0.54352094,0"
           id="path9320"
           inkscape:connector-curvature="0" />
        <path
           style="fill:#ffffff;fill-opacity:1;fill-rule:evenodd;stroke:#000000;stroke-width:0.80000001;stroke-linecap:round;stroke-opacity:1"
           d="M -1.2866832,-3.9585227 3.0617053,0"
           id="path9322"
           inkscape:connector-curvature="0" />
        <path
           style="fill:#ffffff;fill-opacity:1;fill-rule:evenodd;stroke:#000000;stroke-width:0.80000001;stroke-linecap:round;stroke-opacity:1"
           d="M 1.3053582,-3.9585227 5.6537466,0"
           id="path9324"
           inkscape:connector-curvature="0" />
        <path
           style="fill:#ffffff;fill-opacity:1;fill-rule:evenodd;stroke:#000000;stroke-width:0.80000001;stroke-linecap:round;stroke-opacity:1"
           d="M -3.8048674,4.1775838 0.54352094,0.21974226"
           id="path9326"
           inkscape:connector-curvature="0" />
        <path
           style="fill:#ffffff;fill-opacity:1;fill-rule:evenodd;stroke:#000000;stroke-width:0.80000001;stroke-linecap:round;stroke-opacity:1"
           d="M -1.2866832,4.1775838 3.0617053,0.21974226"
           id="path9328"
           inkscape:connector-curvature="0" />
        <path
           style="fill:#ffffff;fill-opacity:1;fill-rule:evenodd;stroke:#000000;stroke-width:0.80000001;stroke-linecap:round;stroke-opacity:1"
           d="M 1.3053582,4.1775838 5.6537466,0.21974226"
           id="path9330"
           inkscape:connector-curvature="0" />
      </g>
    </marker>
    <marker
       inkscape:isstock="true"
       style="overflow:visible"
       id="marker9094"
       refX="0"
       refY="0"
       orient="auto"
       inkscape:stockid="Arrow1Lstart">
      <path
         transform="matrix(0.8,0,0,0.8,10,0)"
         style="fill:#ffffff;fill-opacity:1;fill-rule:evenodd;stroke:#000000;stroke-width:1.00000003pt;stroke-opacity:1"
         d="M 0,0 5,-5 -12.5,0 5,5 Z"
         id="path9092"
         inkscape:connector-curvature="0" />
    </marker>
    <marker
       inkscape:isstock="true"
       style="overflow:visible"
       id="marker9024"
       refX="0"
       refY="0"
       orient="auto"
       inkscape:stockid="Arrow1Lstart">
      <path
         transform="matrix(0.8,0,0,0.8,10,0)"
         style="fill:#ffffff;fill-opacity:1;fill-rule:evenodd;stroke:#000000;stroke-width:1.00000003pt;stroke-opacity:1"
         d="M 0,0 5,-5 -12.5,0 5,5 Z"
         id="path9022"
         inkscape:connector-curvature="0" />
    </marker>
    <marker
       inkscape:isstock="true"
       style="overflow:visible"
       id="marker8960"
       refX="0"
       refY="0"
       orient="auto"
       inkscape:stockid="Arrow1Lstart">
      <path
         transform="matrix(0.8,0,0,0.8,10,0)"
         style="fill:#ffffff;fill-opacity:1;fill-rule:evenodd;stroke:#000000;stroke-width:1.00000003pt;stroke-opacity:1"
         d="M 0,0 5,-5 -12.5,0 5,5 Z"
         id="path8958"
         inkscape:connector-curvature="0" />
    </marker>
    <marker
       inkscape:isstock="true"
       style="overflow:visible"
       id="marker8902"
       refX="0"
       refY="0"
       orient="auto"
       inkscape:stockid="Arrow1Lstart">
      <path
         transform="matrix(0.8,0,0,0.8,10,0)"
         style="fill:#ffffff;fill-opacity:1;fill-rule:evenodd;stroke:#000000;stroke-width:1.00000003pt;stroke-opacity:1"
         d="M 0,0 5,-5 -12.5,0 5,5 Z"
         id="path8900"
         inkscape:connector-curvature="0" />
    </marker>
    <marker
       inkscape:isstock="true"
       style="overflow:visible"
       id="marker8850"
       refX="0"
       refY="0"
       orient="auto"
       inkscape:stockid="Arrow1Lstart">
      <path
         transform="matrix(0.8,0,0,0.8,10,0)"
         style="fill:#ffffff;fill-opacity:1;fill-rule:evenodd;stroke:#000000;stroke-width:1.00000003pt;stroke-opacity:1"
         d="M 0,0 5,-5 -12.5,0 5,5 Z"
         id="path8848"
         inkscape:connector-curvature="0" />
    </marker>
    <marker
       inkscape:isstock="true"
       style="overflow:visible"
       id="marker8804"
       refX="0"
       refY="0"
       orient="auto"
       inkscape:stockid="Arrow1Lstart">
      <path
         transform="matrix(0.8,0,0,0.8,10,0)"
         style="fill:#ffffff;fill-opacity:1;fill-rule:evenodd;stroke:#000000;stroke-width:1.00000003pt;stroke-opacity:1"
         d="M 0,0 5,-5 -12.5,0 5,5 Z"
         id="path8802"
         inkscape:connector-curvature="0" />
    </marker>
    <marker
       inkscape:isstock="true"
       style="overflow:visible"
       id="marker8764"
       refX="0"
       refY="0"
       orient="auto"
       inkscape:stockid="Arrow1Lstart">
      <path
         transform="matrix(0.8,0,0,0.8,10,0)"
         style="fill:#ffffff;fill-opacity:1;fill-rule:evenodd;stroke:#000000;stroke-width:1.00000003pt;stroke-opacity:1"
         d="M 0,0 5,-5 -12.5,0 5,5 Z"
         id="path8762"
         inkscape:connector-curvature="0" />
    </marker>
    <marker
       inkscape:isstock="true"
       style="overflow:visible"
       id="marker8730"
       refX="0"
       refY="0"
       orient="auto"
       inkscape:stockid="Arrow1Lstart">
      <path
         transform="matrix(0.8,0,0,0.8,10,0)"
         style="fill:#ffffff;fill-opacity:1;fill-rule:evenodd;stroke:#000000;stroke-width:1.00000003pt;stroke-opacity:1"
         d="M 0,0 5,-5 -12.5,0 5,5 Z"
         id="path8728"
         inkscape:connector-curvature="0" />
    </marker>
    <marker
       inkscape:isstock="true"
       style="overflow:visible"
       id="marker8702"
       refX="0"
       refY="0"
       orient="auto"
       inkscape:stockid="Arrow1Lstart">
      <path
         transform="matrix(0.8,0,0,0.8,10,0)"
         style="fill:#ffffff;fill-opacity:1;fill-rule:evenodd;stroke:#000000;stroke-width:1.00000003pt;stroke-opacity:1"
         d="M 0,0 5,-5 -12.5,0 5,5 Z"
         id="path8700"
         inkscape:connector-curvature="0" />
    </marker>
    <marker
       inkscape:isstock="true"
       style="overflow:visible"
       id="marker8680"
       refX="0"
       refY="0"
       orient="auto"
       inkscape:stockid="Arrow1Lstart">
      <path
         transform="matrix(0.8,0,0,0.8,10,0)"
         style="fill:#ffffff;fill-opacity:1;fill-rule:evenodd;stroke:#000000;stroke-width:1.00000003pt;stroke-opacity:1"
         d="M 0,0 5,-5 -12.5,0 5,5 Z"
         id="path8678"
         inkscape:connector-curvature="0" />
    </marker>
    <linearGradient
       id="linearGradient8372"
       osb:paint="solid">
      <stop
         style="stop-color:#fa0000;stop-opacity:0.47450981;"
         offset="0"
         id="stop8370" />
    </linearGradient>
    <inkscape:path-effect
       effect="spiro"
       id="path-effect3753"
       is_visible="true" />
    <inkscape:path-effect
       effect="spiro"
       id="path-effect3745"
       is_visible="true" />
    <inkscape:path-effect
       effect="spiro"
       id="path-effect3741"
       is_visible="true" />
  </defs>
  <sodipodi:namedview
     id="base"
     pagecolor="#ffffff"
     bordercolor="#666666"
     borderopacity="1.0"
     inkscape:pageopacity="0.0"
     inkscape:pageshadow="2"
     inkscape:zoom="1.3361458"
     inkscape:cx="302.3622"
     inkscape:cy="302.3622"
     inkscape:document-units="mm"
     inkscape:current-layer="layer1"
     showgrid="true"
     showguides="true"
     inkscape:pagecheckerboard="false"
     inkscape:window-width="1920"
     inkscape:window-height="1001"
     inkscape:window-x="-9"
     inkscape:window-y="-9"
     inkscape:window-maximized="1" />
  <metadata
     id="metadata5">
    <rdf:RDF>
      <cc:Work
         rdf:about="">
        <dc:format>image/svg+xml</dc:format>
        <dc:type
           rdf:resource="http://purl.org/dc/dcmitype/StillImage" />
        <dc:title></dc:title>
      </cc:Work>
    </rdf:RDF>
  </metadata>
  <g
     inkscape:label="Layer 1"
     inkscape:groupmode="layer"
     id="layer1"
     transform="translate(0,-137)">
    <path
       style="fill:#7d97ad;stroke-width:0.38992724;fill-opacity:1"
       d="M 74.613956,294.6435 C 66.541906,293.38523 58.222642,290.87586 51.188764,287.5777 37.947577,281.36898 25.726848,270.9335 16.945836,258.33707 3.8817464,239.59654 -0.75081963,215.50222 4.5797494,194.02018 10.332599,170.83627 27.097462,152.39469 49.717273,144.36823 c 21.187103,-7.51811 46.098383,-4.7153 66.466807,7.4783 13.29138,7.95688 24.20392,19.37438 31.72708,33.19512 17.02046,31.26806 11.73341,68.60561 -12.95493,91.48855 -10.59649,9.82159 -24.83397,16.36859 -39.831274,18.3161 -4.41877,0.57379 -16.28137,0.4565 -20.511,-0.2028 z"
       id="path3717"
       inkscape:connector-curvature="0" />
    <g
       id="g12126"
       style="stroke:#ffffff;stroke-opacity:0.32338309"
       transform="translate(-54.50261,59.035412)">
      <path
         d="m 127,159.41667 c 3.71442,2.12253 -1.02856,6.05415 -3.52778,6.17361 -6.77273,0.32375 -10.03015,-7.57597 -8.81944,-13.22916 2.16567,-10.11222 13.78278,-14.39598 22.93055,-11.46528 13.42472,4.30092 18.86102,20.06288 14.11112,32.63194 -6.33088,16.75258 -26.36757,23.36652 -42.33333,16.75695 -20.091284,-8.31748 -27.892595,-32.68362 -19.402788,-52.03472 10.282298,-23.43676 39.006008,-32.4305 61.736098,-22.04862 26.78663,12.23469 36.97583,45.33234 24.69446,71.43749 -14.17933,30.13943 -51.6613,41.52611 -81.138876,27.34029 -33.4943,-16.11882 -46.079855,-57.9921 -29.986127,-90.84026 18.054731,-36.850673 64.324263,-50.636122 100.541653,-32.631962 40.20817,19.988032 55.19427,70.657442 35.2778,110.243042"
         sodipodi:t0="0"
         sodipodi:argument="-18.33041"
         sodipodi:radius="85.325554"
         sodipodi:revolution="3"
         sodipodi:expansion="1"
         sodipodi:cy="159.41667"
         sodipodi:cx="127"
         id="path12115"
         style="fill:none;fill-rule:evenodd;stroke:#ffffff;stroke-width:0.26458332;stroke-opacity:0.32338309"
         sodipodi:type="spiral" />
      <path
         d="m 127,159.41667 c 3.4491,2.38784 -1.5171,5.8274 -3.96875,5.73264 -6.64383,-0.2568 -9.15764,-8.24986 -7.49652,-13.67014 2.97135,-9.69562 14.68284,-12.89752 23.37153,-9.26041 12.75099,5.33761 16.72812,21.19583 11.02429,33.07292 -7.60232,15.83029 -27.73626,20.59618 -42.77431,12.78818 -18.923846,-9.82558 -24.483364,-34.28954 -14.552065,-52.4757 12.028135,-22.02587 40.850005,-28.38157 62.177085,-16.31595 25.13323,14.21892 32.28671,47.41495 18.07984,71.87848 -16.40239,28.2441 -53.98288,36.19644 -81.579866,19.84372 C 59.923788,192.4294 51.171814,150.4575 69.673626,119.72915 90.429862,85.256599 136.7981,75.704414 170.65627,96.35766 c 37.58898,22.92902 47.94182,73.6972 25.13538,110.68403"
         sodipodi:t0="0"
         sodipodi:argument="-18.244011"
         sodipodi:radius="83.668594"
         sodipodi:revolution="3"
         sodipodi:expansion="1"
         sodipodi:cy="159.41667"
         sodipodi:cx="127"
         id="path12119"
         style="fill:none;fill-rule:evenodd;stroke:#ffffff;stroke-width:0.26458332;stroke-opacity:0.32338309"
         sodipodi:type="spiral" />
      <path
         d="m 125.78259,163.85239 c -4.88906,2.61785 -9.41464,-3.12882 -9.8336,-7.46874 -0.84657,-8.76949 7.85207,-14.90571 15.89964,-14.63327 12.39049,0.41946 20.56014,12.64073 19.43295,24.33052 -1.5417,15.98856 -17.44836,26.27186 -32.76142,24.23264 -19.584795,-2.60808 -32.010615,-22.26328 -29.032321,-41.19232 3.647452,-23.18197 27.081901,-37.76431 49.623221,-33.832 26.7803,4.6718 43.52713,31.90272 38.63168,58.05411 -5.68696,30.37961 -36.72498,49.29593 -66.48501,43.43137 -33.979668,-6.69609 -55.068842,-41.54824 -48.231046,-74.91591 7.701065,-37.58031 46.372236,-60.844716 83.346806,-53.030723 41.18141,8.703045 66.6228,51.196763 57.8304,91.777693 -2.97533,13.73251 -9.60405,26.57545 -18.99557,37.01926"
         sodipodi:t0="0.055877101"
         sodipodi:argument="-18.064157"
         sodipodi:radius="82.319016"
         sodipodi:revolution="3"
         sodipodi:expansion="1"
         sodipodi:cy="159.41667"
         sodipodi:cx="127"
         id="path12121"
         style="fill:none;fill-rule:evenodd;stroke:#ffffff;stroke-width:0.26458332;stroke-opacity:0.32338309"
         sodipodi:type="spiral" />
    </g>
    <g
       id="g12107"
       transform="translate(-87.695966,-9.0517866)"
       style="fill:#2d3c49;fill-opacity:1;stroke:none">
      <path
         inkscape:connector-curvature="0"
         d="m 111.69902,233.36174 c 0.90348,-1.21918 1.75724,-2.47341 2.6292,-3.71495 0.64293,-1.01114 1.48174,-1.8036 2.453,-2.48686 2.11436,-1.35573 3.87286,-2.65146 6.32964,-2.61866 1.07206,0.0856 1.55126,0.6246 2.08095,1.49335 0.42846,0.91576 0.55591,1.90117 0.47105,2.89909 -0.18286,1.17142 -0.7612,2.2046 -1.22169,3.27861 -0.35013,0.85174 -0.67476,1.71803 -0.88725,2.61514 -0.0968,0.55905 -0.16458,1.12145 -0.25147,1.68192 -1.12118,0.44306 -2.18727,1.06512 -3.36355,1.32919 -0.24261,0.0545 0.24844,-0.43123 0.358,-0.65444 0.14772,-0.30092 0.27683,-0.61063 0.41329,-0.91682 0.62411,-1.40041 1.20333,-2.81819 1.78807,-4.23539 1.75712,-4.31182 3.48651,-8.63407 5.00489,-13.03624 1.58006,-4.9194 3.05121,-9.87027 4.77915,-14.74086 1.07336,-3.09557 2.33159,-6.1098 3.86384,-9.00471 0.64344,-1.13839 1.43089,-2.18368 2.15407,-3.27075 0.88093,-1.25781 0.47901,-0.77765 3.75591,-1.71107 0.16714,-0.0476 -0.10186,0.33284 -0.168,0.49355 -0.32649,0.79338 -0.74708,1.56115 -1.1119,2.33715 -1.20615,2.7581 -2.27112,5.57371 -3.3844,8.36957 -1.3646,3.3392 -2.52764,6.75363 -3.79276,10.13033 -0.94523,2.53337 -2.04648,5.00371 -2.90113,7.57053 -0.39034,1.14396 -0.58339,2.33087 -0.64963,3.53345 -0.0307,0.86668 -0.0183,1.73428 -0.01,2.60127 0.005,0.81731 0.0101,1.47912 0.80028,1.88938 1.13621,0.44042 2.24864,-0.13391 3.27751,-0.60489 -0.76808,0.42912 -1.49673,0.93805 -2.30424,1.28737 -0.41022,0.17745 0.74981,-0.489 1.10019,-0.76651 1.75056,-1.38654 3.07431,-3.18025 4.36414,-4.97935 0.31737,-0.48145 0.63713,-0.96133 0.9521,-1.44435 0.63499,-0.97376 1.23788,-1.89707 1.81299,-2.90791 0.86396,-1.51857 1.60065,-3.09566 2.32208,-4.68484 1.41973,-3.38233 2.44338,-6.90431 3.5259,-10.40267 0.9003,-2.84808 2.02023,-5.62051 3.14486,-8.38575 0.85856,-2.10773 1.81755,-4.17261 2.85911,-6.19574 0.34562,-0.6471 0.66589,-1.30778 1.01178,-1.95471 0.003,-0.006 0.40552,-0.75494 0.4654,-0.78587 1.18335,-0.61129 2.41551,-1.12305 3.62326,-1.68458 -0.009,0.21068 0.0107,0.4246 -0.0272,0.63202 -0.19261,1.05289 -0.83492,2.35493 -1.25512,3.31487 -0.53058,1.21213 -1.07668,2.41742 -1.61261,3.62719 -1.92293,4.1881 -3.63614,8.46561 -5.15981,12.81383 -0.71122,2.07124 -1.4049,4.14853 -2.09766,6.22602 -0.49434,1.48246 -0.81923,2.57048 -1.40074,4.02313 -0.27206,0.67961 -0.58291,1.34304 -0.87437,2.01456 -0.36545,0.67975 -0.70868,1.37191 -1.09634,2.03924 -0.55872,0.96183 -2.09686,3.31796 -2.68113,4.24001 -1.26809,2.00118 -2.48634,4.02836 -3.68396,6.07217 -1.36321,2.43535 -2.75682,4.85228 -4.1816,7.25201 -0.4473,0.84765 -1.35912,2.12496 -1.44321,3.09733 0.049,-0.0477 0.0866,-0.11105 0.14702,-0.14303 0.75993,-0.40209 1.96736,-0.72344 2.76395,-0.98801 2.19045,-0.7275 1.16819,-0.39596 3.52438,-1.13327 2.71252,-0.81358 5.48801,-1.43874 8.29976,-1.79185 1.6239,-0.20393 2.06708,-0.19417 3.6546,-0.26605 1.35394,0.0757 3.6827,-0.1759 4.83166,0.74889 0.13333,0.10732 0.22978,0.25372 0.34468,0.38059 0.47814,0.79253 0.53866,1.74515 0.60939,2.64789 0.0386,0.66214 0.035,1.32572 0.0711,1.98791 0,0 -3.54787,1.81113 -3.54787,1.81113 v 0 c 0.0248,-0.66059 0.006,-1.3221 -0.0261,-1.98214 -0.0542,-0.81285 -0.0951,-1.68302 -0.48058,-2.41512 -0.0906,-0.0952 -0.16615,-0.2073 -0.27167,-0.28557 -1.08738,-0.80653 -3.32815,-0.57793 -4.57761,-0.6586 -0.56253,0.0256 -1.12608,0.0343 -1.68759,0.0767 -3.4587,0.2616 -6.86591,1.02299 -10.17645,2.03661 -2.07636,0.67007 -1.62612,0.51258 -3.58179,1.18798 -0.44337,0.15312 -2.49361,0.99583 -3.02564,0.88609 -0.16508,-0.0341 -0.2707,-0.2009 -0.40605,-0.30135 -0.006,-0.1286 -0.0413,-0.25912 -0.0183,-0.3858 0.03,-0.16525 0.11195,-0.31679 0.17405,-0.47284 0.34301,-0.862 0.76763,-1.69015 1.27549,-2.46693 1.48502,-2.41372 2.92488,-4.8537 4.33109,-7.3143 1.22237,-2.04746 2.45156,-4.08895 3.72565,-6.10486 0.42736,-0.67617 2.23837,-3.48154 2.66169,-4.20203 0.3857,-0.65645 0.73023,-1.33623 1.09534,-2.00435 0.2922,-0.66384 0.60393,-1.31943 0.87661,-1.99154 0.62986,-1.55255 0.87524,-2.42722 1.40688,-4.01486 0.69693,-2.08125 1.4017,-4.16002 2.11213,-6.2367 1.51219,-4.35218 3.2363,-8.6251 5.1236,-12.82842 0.71542,-1.6568 1.4658,-3.30455 2.11989,-4.98711 0.78726,-2.02513 0.0535,-0.18463 0.59247,-1.7811 0.0375,-0.11102 0.0948,-0.21432 0.14223,-0.32147 1.15096,-0.63608 2.30192,-1.27217 3.45288,-1.90825 -0.08,0.0797 -0.17285,0.1483 -0.23988,0.23916 -0.55441,0.75139 -0.84017,1.67975 -1.34332,2.46219 -1.07774,2.00999 -2.05212,4.07426 -2.92038,6.18344 -1.14276,2.76757 -2.28621,5.54038 -3.22379,8.38545 -1.08626,3.50655 -2.1063,7.03733 -3.49773,10.44028 -0.71191,1.6001 -1.44047,3.19119 -2.29602,4.72151 -0.61055,1.09209 -1.13033,1.87313 -1.80996,2.92329 -0.31498,0.48671 -0.6323,0.97191 -0.94845,1.45787 -0.98293,1.40319 -1.97312,2.79552 -3.16458,4.03447 -1.84523,1.91878 -4.15098,3.06561 -6.49879,4.33377 -1.15009,0.47627 -2.37379,0.98267 -3.564,0.34445 -0.11087,-0.078 -0.23225,-0.14293 -0.33263,-0.23407 -0.54687,-0.49654 -0.6632,-1.3092 -0.65798,-2.00554 -0.005,-0.87483 -0.0228,-1.74996 0.002,-2.62464 0.0661,-1.24534 0.24716,-2.47846 0.66728,-3.65952 0.87819,-2.59098 2.02676,-5.07269 2.99414,-7.62985 1.28635,-3.36524 2.42063,-6.78592 3.77091,-10.12733 1.10754,-2.78194 2.16871,-5.58216 3.30254,-8.35366 0.34285,-0.76505 0.70407,-1.5198 1.05517,-2.28055 0.0609,-0.13197 0.0435,-0.32826 0.16873,-0.40205 1.17229,-0.69091 2.41186,-1.26233 3.64206,-1.84391 0.0911,-0.043 -0.1381,0.14668 -0.20715,0.22003 -0.74188,1.09487 -1.53351,2.15374 -2.2434,3.27022 -0.63158,1.13475 -1.25842,2.27192 -1.80244,3.45236 -0.62477,1.35563 -0.90403,2.11169 -1.45607,3.53178 -0.26395,0.67899 -0.52395,1.35951 -0.78593,2.03927 -1.75615,4.8699 -3.27573,9.81462 -4.82101,14.75445 -1.48,4.38916 -3.17336,8.69885 -4.88371,13.00281 -0.55752,1.40303 -1.11461,2.80481 -1.69166,4.19984 -0.12641,0.3056 -0.24865,0.61292 -0.37534,0.9184 -0.0959,0.23132 -0.0831,0.55471 -0.29253,0.69198 -1.20853,0.7921 -2.55867,1.34352 -3.83801,2.01528 0.0241,-0.22758 0.10311,-0.43842 0.13648,-0.66376 0.0524,-0.35344 0.0406,-0.71806 0.13064,-1.06701 0.19471,-0.92458 0.51993,-1.81162 0.87275,-2.68675 0.43857,-1.05385 1.03203,-2.04274 1.26704,-3.17213 0.11877,-0.91352 0.0302,-1.82014 -0.35679,-2.6675 -0.47995,-0.78557 -0.88939,-1.14666 -1.85063,-1.15215 -0.49131,0.0275 -0.96379,0.0809 -1.44019,0.21297 -1.33003,0.36869 -3.4067,1.80071 1.96535,-1.35698 -0.99199,0.64133 -1.88847,1.35815 -2.53461,2.36832 -0.87781,1.21648 -1.71025,2.46467 -2.5858,3.68285 0,0 -3.63015,1.58832 -3.63015,1.58832 z"
         id="path3755"
         style="opacity:1;fill:#2d3c49;fill-opacity:1;stroke:none;stroke-width:0.66500002;stroke-linecap:square;stroke-linejoin:round;stroke-miterlimit:4;stroke-dasharray:none;stroke-dashoffset:0;stroke-opacity:0.59203982;paint-order:stroke fill markers" />
      <path
         inkscape:connector-curvature="0"
         d="m 147.76779,218.97252 c 0.71408,-0.71752 1.33898,-1.51614 2.03789,-2.24687 1.52469,-1.43186 3.35198,-2.66921 5.35558,-3.29264 0.73964,-0.18821 1.50927,-0.18706 2.26756,-0.19302 0.85177,-0.0273 1.44113,-0.0375 2.13942,0.49259 0.53089,0.51518 0.60282,1.26752 0.66284,1.96721 0.0506,0.86792 -0.0573,1.74058 -0.25313,2.58518 -0.2388,0.92136 -0.74482,1.73303 -1.23904,2.53505 -0.48803,0.67753 -0.86043,1.38305 -1.03879,2.19896 -0.1182,0.78354 -0.23972,1.56645 -0.38527,2.3454 -0.1452,0.73756 -0.20878,1.48649 -0.24689,2.23606 -0.0143,0.75228 -0.0852,1.51091 0.0655,2.2527 0.25451,0.71648 0.75782,1.3304 1.3026,1.84986 0.48013,0.54543 1.07327,0.8791 1.75729,1.09254 0.43091,0.0599 0.90633,0.26057 1.34949,0.20838 0.0781,-0.009 0.28664,-0.1282 0.21824,-0.0894 -1.10132,0.62401 -2.21235,1.23072 -3.31852,1.84609 0.11692,0.0453 0.0644,0.0388 -0.0374,-0.15443 0,0 3.44254,-1.98421 3.44254,-1.98421 v 0 c 0.22913,0.38637 0.1328,0.17955 0.2836,0.62294 -3.06238,1.77991 -2.79865,2.49224 -5.2172,1.76997 -0.71584,-0.27099 -1.33132,-0.66277 -1.84279,-1.24276 -0.59148,-0.58241 -1.1335,-1.26017 -1.42741,-2.04385 -0.18361,-0.77116 -0.12105,-1.55629 -0.1137,-2.34399 0.0261,-0.76811 0.0972,-1.53396 0.22976,-2.29154 0.14928,-0.77824 0.27865,-1.56011 0.38155,-2.3458 0.14889,-0.86497 0.43807,-1.6355 0.98966,-2.33348 0.4808,-0.77616 1.00534,-1.54762 1.28562,-2.42368 0.22014,-0.7993 0.32959,-1.63576 0.30071,-2.46517 -0.0397,-0.57309 -0.0412,-1.24587 -0.4978,-1.65801 -0.60237,-0.37668 -1.30023,-0.31166 -1.9871,-0.29571 -0.73812,0.0203 -1.48841,0.0408 -2.18952,0.29965 -1.4157,0.60449 -0.50612,0.23327 2.69163,-1.63521 0.11225,-0.0656 -0.22529,0.13025 -0.33299,0.20308 -0.25922,0.17532 -0.39322,0.29853 -0.62906,0.50207 -0.10681,0.0922 -0.21291,0.18518 -0.31936,0.27777 -0.73607,0.68141 -1.31072,1.50822 -2.03009,2.20721 0,0 -3.65539,1.5471 -3.65539,1.5471 z"
         id="path3763"
         style="opacity:1;fill:#2d3c49;fill-opacity:1;stroke:none;stroke-width:0.66500002;stroke-linecap:square;stroke-linejoin:round;stroke-miterlimit:4;stroke-dasharray:none;stroke-dashoffset:0;stroke-opacity:0.59203982;paint-order:stroke fill markers" />
      <path
         inkscape:connector-curvature="0"
         d="m 152.56757,223.39512 c -0.80138,-0.42142 -1.67898,-0.63673 -2.56675,-0.77906 -0.6987,-0.0898 -1.40395,-0.0952 -2.1072,-0.0957 -0.66219,-0.0603 -1.16462,0.29138 -1.71538,0.59352 5.89386,-3.21825 3.44097,-2.30325 2.57737,-1.29651 -0.2032,0.23688 -0.36089,0.50485 -0.52253,0.77026 -0.35137,0.48754 -0.57004,1.01241 -0.69051,1.59773 -0.10086,0.60115 -0.11058,1.21183 -0.1165,1.81976 -0.0645,0.56933 0.0808,1.07977 0.25607,1.61152 0.1941,0.42822 0.41211,0.88538 0.75072,1.21899 0.42373,0.46822 0.97973,0.78453 1.47819,1.16601 0.4754,0.36526 1.05375,0.52209 1.61697,0.69604 0.51429,0.18606 1.06738,0.26586 1.57853,0.45537 0.43722,0.17955 0.90469,0.22492 1.37145,0.25273 0.54147,0.024 1.0972,0.0742 1.5879,-0.19127 1.31074,-0.62541 0.39652,-0.19492 -3.05117,1.75184 -0.0525,0.0296 0.10591,-0.059 0.15203,-0.0977 0.16128,-0.13555 0.23954,-0.34418 0.32888,-0.52783 0,0 3.61227,-1.66315 3.61227,-1.66315 v 0 c -0.65625,1.81533 -1.81183,2.23518 -4.17836,2.98432 -0.55789,0.11407 -1.121,0.10092 -1.6871,0.0535 -0.4881,-0.0522 -0.96583,-0.14761 -1.42447,-0.32833 -0.52658,-0.1463 -1.05271,-0.29136 -1.5738,-0.45723 -0.59529,-0.20127 -1.18951,-0.40316 -1.68196,-0.81153 -0.52046,-0.38696 -1.0872,-0.72428 -1.52192,-1.21304 -0.36371,-0.3944 -0.62047,-0.88753 -0.83841,-1.37475 -0.18353,-0.56732 -0.38631,-1.11632 -0.31516,-1.72571 0.004,-0.6285 0.012,-1.25869 0.0934,-1.88293 0.096,-0.6275 0.24219,-1.21404 0.61827,-1.73805 0.41295,-0.60139 -0.0965,0.15956 0.31952,-0.53095 0.95875,-1.59141 2.62309,-2.09904 4.34645,-3.02244 0.58533,-0.30736 1.16973,-0.5004 1.84145,-0.43972 0.71371,0.0119 1.42952,0.0375 2.13448,0.1591 0.91322,0.18405 1.80631,0.44792 2.64414,0.86277 0,0 -3.31691,2.1824 -3.31691,2.1824 z"
         id="path3765"
         style="opacity:1;fill:#2d3c49;fill-opacity:1;stroke:none;stroke-width:0.66500002;stroke-linecap:square;stroke-linejoin:round;stroke-miterlimit:4;stroke-dasharray:none;stroke-dashoffset:0;stroke-opacity:0.59203982;paint-order:stroke fill markers" />
      <path
         inkscape:connector-curvature="0"
         d="m 165.89403,213.78076 c 0.0955,1.1214 0.26758,2.23469 0.38587,3.35417 0.0938,0.82569 0.10934,1.65651 0.12189,2.48646 -0.025,0.76196 0.0257,1.51574 0.11097,2.27215 0.0873,0.71923 0.12463,1.4432 0.14825,2.16693 0.0178,0.59304 0.0144,1.18635 0.0132,1.77957 -0.005,0.71854 -0.005,1.4371 -0.003,2.15566 0.0438,0.68086 -0.0729,1.35051 -0.15217,2.02339 -0.0721,0.63223 -0.0704,1.26803 -0.16947,1.89697 -0.0567,0.59421 -0.3404,1.12153 -0.52569,1.67906 -0.15793,0.64788 -0.20168,1.31338 -0.35008,1.96387 -0.1929,0.6354 -0.38374,1.27037 -0.56491,1.90932 -0.3519,1.43342 -3.2908,3.45058 -3.86867,1.66808 0,0 3.49373,-1.90408 3.49373,-1.90408 v 0 c 0.33618,1.46995 0.0906,0.13637 -3.41975,2.13935 -0.0319,0.0182 0.0753,-0.0186 0.10042,-0.0454 0.045,-0.048 0.0674,-0.11299 0.10104,-0.16949 0.23505,-0.61293 0.33962,-1.27594 0.58149,-1.88937 0.19315,-0.64507 0.22655,-1.3099 0.3434,-1.96993 0.13732,-0.56779 0.45056,-1.06236 0.54138,-1.63991 0.11792,-0.6228 0.1362,-1.24833 0.18818,-1.87985 0.0706,-0.66126 0.20529,-1.31569 0.17033,-1.98312 0.003,-0.71794 0.003,-1.43589 -2.7e-4,-2.15383 -5.3e-4,-0.59018 -0.001,-1.1804 -0.008,-1.77055 -0.014,-0.71512 -0.0406,-1.43062 -0.12334,-2.14163 -0.0858,-0.76784 -0.17347,-1.53204 -0.1319,-2.30671 -0.004,-0.82246 -0.0189,-1.64539 -0.088,-2.46541 -0.0984,-1.11677 -0.25589,-2.22464 -0.41195,-3.33428 0,0 3.51714,-1.84137 3.51714,-1.84137 z"
         id="path3767"
         style="opacity:1;fill:#2d3c49;fill-opacity:1;stroke:none;stroke-width:0.66500002;stroke-linecap:square;stroke-linejoin:round;stroke-miterlimit:4;stroke-dasharray:none;stroke-dashoffset:0;stroke-opacity:0.59203982;paint-order:stroke fill markers" />
      <path
         inkscape:connector-curvature="0"
         d="m 164.37248,223.74835 c 0.72913,-0.73392 1.35251,-1.56078 1.97914,-2.38102 0.3586,-0.50043 0.77778,-0.9511 1.16969,-1.42474 0.35312,-0.4198 0.76115,-0.7841 1.18375,-1.13154 1.28404,-0.95271 2.73557,-1.6284 4.1319,-2.41586 0.0835,-0.0471 0.34089,-0.17566 0.25787,-0.12765 -3.65291,2.11222 -4.17216,2.44512 -2.95241,1.67385 1.20772,-0.69361 2.41627,-1.3858 3.62318,-2.08083 1.06837,-0.61526 -2.13662,1.23069 -3.20755,1.84148 -0.0645,0.0368 0.12352,-0.0825 0.18796,-0.11932 3.6383,-2.07837 2.27114,-1.70936 3.83279,-2.10703 0,0 -3.13823,2.44637 -3.13823,2.44637 v 0 c -0.0655,0.0302 -0.25857,0.12716 -0.19638,0.0907 1.06799,-0.62648 2.1437,-1.23972 3.21464,-1.86117 0.064,-0.0371 -0.12972,0.0711 -0.19368,0.10816 -1.19997,0.69602 -2.40117,1.38992 -3.59809,2.09117 -1.05769,0.61968 2.12029,-1.23098 3.18043,-1.84647 -1.38166,0.85189 -0.65228,0.40497 -3.85436,2.24136 -0.0835,0.0479 -0.34216,0.17624 -0.25923,0.12734 1.04618,-0.61685 2.10101,-1.21894 3.14965,-1.8316 0.16532,-0.0966 -0.67806,0.36658 -0.487,0.30463 -0.4504,0.2968 -0.83495,0.67259 -1.22151,1.04444 -0.39935,0.47407 -0.8097,0.93643 -1.19146,1.4231 -0.65423,0.79576 -1.22683,1.6652 -1.95974,2.39365 0,0 -3.65136,1.541 -3.65136,1.541 z"
         id="path3769"
         style="opacity:1;fill:#2d3c49;fill-opacity:1;stroke:none;stroke-width:0.66500002;stroke-linecap:square;stroke-linejoin:round;stroke-miterlimit:4;stroke-dasharray:none;stroke-dashoffset:0;stroke-opacity:0.59203982;paint-order:stroke fill markers" />
      <path
         inkscape:connector-curvature="0"
         d="m 178.94335,197.54743 c -0.13413,1.10781 -0.18597,2.22335 -0.22449,3.3379 -0.0244,0.88437 -0.0262,1.76914 -0.0254,2.65379 -0.003,0.82303 -8e-5,1.64607 -5.3e-4,2.46911 -10e-4,0.85644 0.001,1.71289 -8e-4,2.56934 -0.0404,0.87876 0.0748,1.74963 0.15209,2.62262 0.0704,0.86992 0.21582,1.73021 0.29788,2.59927 0.0662,0.92561 0.19694,1.84457 0.27068,2.76976 0.0782,1.07353 0.0667,2.15045 0.0708,3.22602 0.0369,1.23666 -0.0208,2.46785 -0.11199,3.70053 -0.0606,0.99483 -0.23014,1.97791 -0.32364,2.96978 -0.0671,0.92277 -0.19599,1.83927 -0.27412,2.76128 -0.0353,0.64997 -0.0527,1.29459 -0.20212,1.93018 -0.18503,0.77105 -0.60658,1.43024 -1.09427,2.04253 -0.8604,0.91632 -1.81962,1.72944 -2.70031,2.6264 -1.18778,1.27983 -2.18789,2.72122 -3.15049,4.17391 -0.8185,1.44033 -1.86288,2.71878 -2.87755,4.01984 -0.69119,0.83173 -1.37029,1.67267 -2.03952,2.5221 -1.01579,1.3304 -0.97087,0.66453 -3.94644,2.00557 0,0 3.40763,-2.06783 3.40763,-2.06783 v 0 c -7.13253,3.95494 -3.99452,2.57262 -3.09834,1.62308 0.66268,-0.87088 1.37685,-1.70305 2.08133,-2.54063 1.00978,-1.30683 2.11255,-2.54634 2.91466,-4.00146 0.94701,-1.46815 1.95168,-2.91087 3.09878,-4.2305 0.851,-0.90801 1.78321,-1.72473 2.67324,-2.59263 0.50755,-0.54112 0.94703,-1.15213 1.14509,-1.87725 0.20871,-0.6055 0.21383,-1.2348 0.2503,-1.869 0.0819,-0.92315 0.21162,-1.8413 0.28074,-2.76524 0.082,-0.99556 0.2589,-1.97815 0.34077,-2.97321 0.0968,-1.22337 0.17349,-2.44541 0.12929,-3.67378 -0.005,-1.06412 -0.014,-2.12894 -0.0761,-3.19155 -0.067,-0.92415 -0.19803,-1.84039 -0.27287,-2.76307 -0.0722,-0.871 -0.22271,-1.73088 -0.29494,-2.60107 -0.0773,-0.88311 -0.21113,-1.76351 -0.16993,-2.65244 -0.002,-0.85592 5.2e-4,-1.71184 -0.002,-2.56777 -0.002,-0.82276 -2.6e-4,-1.64553 -0.003,-2.46829 0.004,-0.89158 0.009,-1.78329 0.0383,-2.67448 0.0369,-1.11732 0.10682,-2.23266 0.18597,-3.34772 0,0 3.55125,-1.76509 3.55125,-1.76509 z"
         id="path3771"
         style="opacity:1;fill:#2d3c49;fill-opacity:1;stroke:none;stroke-width:0.66500002;stroke-linecap:square;stroke-linejoin:round;stroke-miterlimit:4;stroke-dasharray:none;stroke-dashoffset:0;stroke-opacity:0.59203982;paint-order:stroke fill markers" />
      <path
         inkscape:connector-curvature="0"
         d="m 176.88628,224.28969 c 0.62781,-0.9864 1.15344,-2.028 1.61558,-3.1005 0.38377,-0.86286 0.81128,-1.70276 1.32176,-2.49721 0.51304,-0.70601 1.03622,-1.40731 1.65398,-2.02559 0.42128,-0.38411 0.87298,-0.7321 1.35227,-1.04032 0,0 3.69701,-1.46184 3.69701,-1.46184 v 0 c -0.44286,0.35403 -0.96279,0.61299 -1.38776,0.99572 -0.64371,0.58428 -1.1722,1.25917 -1.70315,1.94607 -0.51254,0.78286 -0.96658,1.59132 -1.3627,2.44077 -0.45155,1.0762 -0.95243,2.13041 -1.56776,3.12435 0,0 -3.61923,1.61855 -3.61923,1.61855 z"
         id="path3773"
         style="opacity:1;fill:#2d3c49;fill-opacity:1;stroke:none;stroke-width:0.66500002;stroke-linecap:square;stroke-linejoin:round;stroke-miterlimit:4;stroke-dasharray:none;stroke-dashoffset:0;stroke-opacity:0.59203982;paint-order:stroke fill markers" />
      <path
         inkscape:connector-curvature="0"
         d="m 180.97176,222.78698 c 0.71192,1.03028 1.1919,2.18465 1.75272,3.29631 0.42181,0.80711 0.76024,1.62203 0.92116,2.51929 0.17623,0.86476 0.38668,1.72318 0.59996,2.57974 0.23603,0.63972 0.36311,1.30996 0.5473,1.96344 0.10017,0.37628 0.30291,0.71419 0.57743,0.98831 0.0746,0.0658 0.21404,0.33231 0.35647,0.29931 0.0297,-0.007 0.0829,-0.0868 0.0559,-0.0726 -3.34004,1.75621 -4.05063,2.84464 -3.24117,1.65743 0,0 3.6139,-1.67203 3.6139,-1.67203 v 0 c -0.38549,1.69382 -3.1052,3.3746 -4.18879,1.85748 -0.29749,-0.33653 -0.54841,-0.71617 -0.66199,-1.15604 -0.19145,-0.65759 -0.28265,-1.34515 -0.53464,-1.98766 -0.20993,-0.86693 -0.42666,-1.73275 -0.61384,-2.60453 -0.13922,-0.86369 -0.45771,-1.64697 -0.85189,-2.42689 -0.53544,-1.10602 -0.99166,-2.25696 -1.75121,-3.23834 0,0 3.41872,-2.00326 3.41872,-2.00326 z"
         id="path3775"
         style="opacity:1;fill:#2d3c49;fill-opacity:1;stroke:none;stroke-width:0.66500002;stroke-linecap:square;stroke-linejoin:round;stroke-miterlimit:4;stroke-dasharray:none;stroke-dashoffset:0;stroke-opacity:0.59203982;paint-order:stroke fill markers" />
      <path
         inkscape:connector-curvature="0"
         d="m 191.14386,219.50483 c -0.50174,0.85184 -0.83794,1.78223 -1.12966,2.72252 -0.22329,0.74339 -0.30778,1.51273 -0.34623,2.28458 -0.0215,0.59273 -0.016,1.18598 -0.0131,1.77896 0.0104,0.54082 -0.0142,1.08255 0.0254,1.62224 0.0562,0.63324 0.1456,1.2398 0.37806,1.83205 0.22086,0.45537 0.5597,0.882 0.97353,1.17702 0.50061,0.20985 0.92294,0.55194 1.41208,0.78298 0.4934,0.20402 1.02678,0.23266 1.55326,0.25137 0.68269,0.0281 1.31786,-0.301 1.93278,-0.56001 0.12383,-0.047 0.25062,-0.0868 0.37149,-0.14088 0.10894,-0.0488 0.21016,-0.11328 0.31663,-0.16724 1.90666,-0.96627 -4.5081,2.72339 -2.45003,1.4009 0.38905,-0.28707 0.56918,-0.71496 0.67866,-1.16976 0.11461,-0.75845 0.1041,-1.52921 0.109,-2.29434 0.0336,-0.71942 -0.0223,-1.4277 -0.11814,-2.13907 -0.0708,-0.71943 -0.36008,-1.36993 -0.61853,-2.03409 -0.22946,-0.6349 -0.54348,-1.2381 -0.95502,-1.77316 -0.28533,-0.44841 -0.7213,-0.75579 -1.1675,-1.02972 -0.37166,-0.33841 -0.80201,-0.48578 -1.28912,-0.55351 -0.3509,-0.0658 -0.64649,-0.0216 -0.97161,0.11159 0,0 3.15175,-2.41793 3.15175,-2.41793 v 0 c 0.36351,-0.0532 0.71932,-0.0516 1.08026,0.0309 0.5117,0.12344 0.96261,0.34462 1.37015,0.68239 0.47258,0.31868 0.93297,0.65571 1.23656,1.15048 0.4248,0.57033 0.75621,1.20693 1.0087,1.87162 0.26004,0.69443 0.56893,1.36897 0.66118,2.1142 0.10128,0.73025 0.18021,1.45373 0.13251,2.19358 3e-5,0.78306 0.007,1.56784 -0.0604,2.34872 -0.0698,0.52817 -0.21982,1.00605 -0.55603,1.42977 -0.21627,0.20376 -0.13494,0.15005 -0.40125,0.30413 -1.55028,0.89693 -2.97768,1.90209 -4.63712,2.52742 -0.66067,0.25701 -1.32845,0.51699 -2.05232,0.43086 -0.56639,-0.0441 -1.13065,-0.12564 -1.64331,-0.38781 -0.49492,-0.26631 -0.96953,-0.57066 -1.45921,-0.84577 -0.44146,-0.3744 -0.82876,-0.83573 -1.07582,-1.36133 -0.24634,-0.62543 -0.36707,-1.25541 -0.42763,-1.92565 -0.0764,-0.54911 -0.0354,-1.10382 -0.0473,-1.65729 -0.002,-0.60042 -0.006,-1.20102 0.0133,-1.80123 0.0338,-0.80161 0.0993,-1.60222 0.31998,-2.37795 0.27048,-0.96202 0.61731,-1.90291 1.07484,-2.79298 0,0 3.61923,-1.61855 3.61923,-1.61855 z"
         id="path3777"
         style="opacity:1;fill:#2d3c49;fill-opacity:1;stroke:none;stroke-width:0.66500002;stroke-linecap:square;stroke-linejoin:round;stroke-miterlimit:4;stroke-dasharray:none;stroke-dashoffset:0;stroke-opacity:0.59203982;paint-order:stroke fill markers" />
      <path
         inkscape:connector-curvature="0"
         d="m 201.79823,218.00814 c 0.92604,-0.0959 1.88177,0.12715 2.70818,0.54436 0.57939,0.35987 0.79978,0.92155 0.90105,1.56465 0.0566,0.54152 0.041,1.08718 0.0348,1.63067 -0.0142,0.54224 0.009,1.08546 -0.0333,1.62644 -0.0893,0.52944 -0.16894,1.05886 -0.21088,1.59431 -0.006,0.58494 -0.0642,1.16146 -0.14891,1.73962 -0.1244,0.57853 -0.27514,1.14831 -0.35489,1.73552 -0.0872,0.46655 -0.21571,0.92072 -0.27727,1.39233 -0.0534,0.50965 -0.0551,1.02277 -0.0585,1.53463 -0.0405,0.6015 0.0754,0.92005 0.47241,1.35638 0.48915,0.37519 0.9945,0.73804 1.53081,1.04444 0.5327,0.24604 1.09296,0.40553 1.67066,0.50257 0.57015,0.0815 1.14697,0.0871 1.72174,0.0911 0.60469,0.0914 1.04282,-0.17112 1.55708,-0.43112 -5.35337,3.02773 -3.23842,2.29229 -2.2288,0.8387 0.31695,-0.42527 0.58086,-0.88534 0.83295,-1.3509 0.28656,-0.5471 0.43485,-1.15545 0.59444,-1.74918 0.22094,-0.60484 0.34205,-1.23479 0.47845,-1.86229 0.16401,-0.7142 0.21426,-1.44543 0.24649,-2.17524 0.0209,-0.69042 0.0167,-1.38126 0.014,-2.07189 0.0401,-0.58493 0.15658,-1.15989 0.20974,-1.74392 0.041,-0.64908 0.12893,-1.2981 0.29912,-1.9263 0.1412,-0.48716 0.19672,-0.98338 0.44289,-1.43218 0.33357,-0.42902 0.79604,-0.73669 1.24725,-1.03043 0.45421,-0.31023 0.91589,-0.61017 1.35555,-0.94105 0.18346,-0.13193 0.37934,-0.24114 0.56477,-0.37 0,0 3.6817,-1.51264 3.6817,-1.51264 v 0 c -0.15546,0.19161 -0.30759,0.34231 -0.54973,0.42325 -0.45739,0.30723 -0.87863,0.66695 -1.35816,0.94391 -0.41885,0.31855 -0.8904,0.56527 -1.28713,0.91379 -0.3787,0.35364 -0.38199,0.82579 -0.50875,1.30377 -0.18959,0.6021 -0.3139,1.22198 -0.33871,1.8552 -0.0399,0.5767 -0.11594,1.1463 -0.22285,1.71457 -10e-4,0.6968 -0.003,1.39365 -0.019,2.09031 -0.0191,0.74902 -0.0586,1.50088 -0.2123,2.23635 -0.13302,0.62781 -0.21093,1.2787 -0.46385,1.87165 -0.14913,0.62211 -0.33016,1.24078 -0.54956,1.84099 -0.26588,0.46862 -0.49933,0.95481 -0.8096,1.39736 -0.40256,0.511 0.0833,-0.12459 -0.31165,0.45884 -0.94431,1.39491 -2.98034,1.99424 -4.20964,2.75297 -0.5401,0.2517 -1.07506,0.33994 -1.67156,0.28529 -0.58829,-0.0134 -1.17866,-0.0373 -1.75769,-0.15126 -0.60567,-0.13178 -1.20468,-0.31253 -1.74873,-0.61604 -0.55524,-0.34497 -1.10629,-0.71227 -1.59551,-1.14591 -0.41582,-0.4724 -0.66836,-0.95963 -0.61789,-1.60883 0.001,-0.52364 5.3e-4,-1.04792 0.0371,-1.57056 0.0429,-0.47617 0.11948,-0.94562 0.27946,-1.39835 0.0634,-0.59313 0.17924,-1.17575 0.35515,-1.74651 0.0829,-0.56916 0.17329,-1.13185 0.15663,-1.70961 0.0322,-0.54181 0.0881,-1.0817 0.20166,-1.6133 0.0913,-0.52259 0.0248,-1.05878 0.0527,-1.58735 0.007,-0.52626 0.0223,-1.05343 -0.009,-1.57916 -0.0563,-0.52545 -0.18463,-0.9684 -0.68625,-1.23301 -0.81717,-0.35733 -1.70613,-0.50654 -2.59262,-0.35804 0,0 3.18578,-2.36891 3.18578,-2.36891 z"
         id="path3781"
         style="opacity:1;fill:#2d3c49;fill-opacity:1;stroke:none;stroke-width:0.66500002;stroke-linecap:square;stroke-linejoin:round;stroke-miterlimit:4;stroke-dasharray:none;stroke-dashoffset:0;stroke-opacity:0.59203982;paint-order:stroke fill markers" />
      <path
         inkscape:connector-curvature="0"
         d="m 210.29353,241.13881 c -0.98597,-0.28652 -1.97485,-0.5543 -2.95928,-0.8472 -1.00748,-0.30677 -2.0136,-0.61585 -3.0082,-0.96331 -0.97243,-0.2944 -1.93874,-0.60501 -2.90826,-0.90893 -0.92227,-0.30138 -1.84317,-0.60844 -2.77534,-0.87769 -1.11283,-0.25874 -2.26149,-0.28547 -3.39853,-0.31594 -1.27766,-0.0286 -2.55587,0.012 -3.83216,-0.0572 -1.86935,-0.11445 -3.7331,-0.28526 -5.60392,-0.38036 -2.86503,-0.0501 -5.7284,0.22685 -8.5711,0.55996 -2.4679,0.28687 -4.94041,0.54429 -7.41811,0.73025 -2.89731,0.16303 -5.80079,0.15383 -8.70163,0.16433 -2.18613,-0.008 -4.3782,0.002 -6.54608,0.3168 -0.9598,0.13949 -2.44576,0.43371 -3.39203,0.614 -3.44118,0.71601 -6.80347,1.75234 -10.20008,2.64754 -3.29982,0.74704 -6.64002,1.30406 -9.95638,1.97382 -4.02516,0.85265 -8.00121,1.91532 -11.89405,3.24664 -1.32691,0.48961 -2.69098,0.87517 -4.01834,1.36326 -0.88888,0.32685 -1.74357,0.73673 -2.60339,1.1313 -2.58194,1.13997 -5.24212,2.09 -7.86849,3.12041 -1.42281,0.55087 -0.74349,0.29471 -2.03673,0.77177 0,0 3.05622,-2.38898 3.05622,-2.38898 v 0 c 1.25768,-0.45843 0.59554,-0.21244 1.98536,-0.74084 2.64973,-1.01899 5.31941,-1.99604 7.90338,-3.17592 0.56605,-0.25607 1.12633,-0.51777 1.70401,-0.74718 1.58402,-0.62905 3.24045,-1.05509 4.84119,-1.63718 3.91136,-1.29271 7.89442,-2.35637 11.92469,-3.21116 3.31873,-0.67344 6.66006,-1.24272 9.95988,-2.00403 3.39809,-0.89704 6.76294,-1.93438 10.21241,-2.62334 1.08288,-0.20369 2.32703,-0.45242 3.42127,-0.60073 2.1771,-0.29508 4.37555,-0.27803 6.56773,-0.28219 2.91526,-0.0191 5.83355,-0.0325 8.74348,-0.22883 2.46102,-0.19261 4.91875,-0.43418 7.37141,-0.71318 2.86834,-0.31642 5.75396,-0.60112 8.64305,-0.53518 1.88519,0.0922 3.76588,0.2455 5.65069,0.34347 1.28025,0.0406 2.56125,0.002 3.84168,0.0444 1.16412,0.0404 2.3415,0.0856 3.47279,0.38808 0.92867,0.28418 1.85298,0.58206 2.77496,0.88729 0.96881,0.31423 1.94603,0.59835 2.91352,0.91669 0.99266,0.33879 1.99357,0.64893 2.99778,0.95139 0.98128,0.29932 1.97164,0.56142 2.96808,0.80565 0,0 -3.26148,2.26232 -3.26148,2.26232 z"
         id="path3783"
         style="opacity:1;fill:#2d3c49;fill-opacity:1;stroke:none;stroke-width:0.66500002;stroke-linecap:square;stroke-linejoin:round;stroke-miterlimit:4;stroke-dasharray:none;stroke-dashoffset:0;stroke-opacity:0.59203982;paint-order:stroke fill markers" />
    </g>
  </g>
</svg>
